<svg data-v-423bf9ae="" xmlns="http://www.w3.org/2000/svg" viewBox="0 0 667 107" class="iconLeft"><!----><!----><!----><g data-v-423bf9ae="" id="a8a0dc7b-4594-4b54-aeb5-f5dc605c5170" fill="#000000" transform="matrix(4.424778624136357,0,0,4.424778624136357,123.14391792840917,24.638740893865982)"><path d="M0 2.92L0 10.50L1.46 10.50L1.46 4.96L1.46 4.96Q1.46 3.94 2.74 3.94L2.74 3.94L2.74 3.94Q4.03 3.94 4.03 4.96L4.03 4.96L4.03 5.54L5.48 5.54L5.48 4.67L5.48 4.67Q5.48 2.77 3.47 2.77L3.47 2.77L3.47 2.77Q1.46 2.77 1.46 3.94L1.46 3.94L1.46 2.92L0 2.92ZM6.65 4.67L6.65 4.67L6.65 8.75L6.65 8.75Q6.65 10.65 9.86 10.65L9.86 10.65L9.86 10.65Q13.07 10.65 13.07 8.75L13.07 8.75L13.07 7.88L11.61 7.88L11.61 8.46L11.61 8.46Q11.61 9.48 9.86 9.48L9.86 9.48L9.86 9.48Q8.11 9.48 8.11 8.46L8.11 8.46L8.11 7.29L13.07 7.29L13.07 4.67L13.07 4.67Q13.07 2.77 9.86 2.77L9.86 2.77L9.86 2.77Q6.65 2.77 6.65 4.67ZM11.61 6.13L8.11 6.13L8.11 4.96L8.11 4.96Q8.11 3.94 9.86 3.94L9.86 3.94L9.86 3.94Q11.61 3.94 11.61 4.96L11.61 4.96L11.61 6.13ZM18.61 9.48L18.61 9.48Q18.61 10.65 16.80 10.65L16.80 10.65L16.80 10.65Q14.23 10.65 14.23 8.75L14.23 8.75L14.23 7.76L14.23 7.76Q14.23 5.95 17.15 5.95L17.15 5.95L17.15 5.95Q18.61 5.95 18.61 5.25L18.61 5.25L18.61 4.96L18.61 4.96Q18.61 3.94 17.15 3.94L17.15 3.94L17.15 3.94Q15.90 3.94 15.90 4.96L15.90 4.96L15.90 5.54L14.44 5.54L14.44 4.67L14.44 4.67Q14.44 2.77 17.15 2.77L17.15 2.77L17.15 2.77Q20.07 2.77 20.07 4.67L20.07 4.67L20.07 9.48L20.07 9.48Q20.07 10.50 20.65 10.50L20.65 10.50L19.19 10.50L19.19 10.50Q18.61 10.50 18.61 9.48L18.61 9.48ZM18.61 6.59L18.61 6.59Q18.61 7.12 17.15 7.12L17.15 7.12L17.15 7.12Q15.69 7.12 15.69 8.05L15.69 8.05L15.69 8.46L15.69 8.46Q15.69 9.48 17.15 9.48L17.15 9.48L17.15 9.48Q18.61 9.48 18.61 8.10L18.61 8.10L18.61 6.59ZM27.65 8.75L27.65 7.58L26.19 7.58L26.19 8.46L26.19 8.46Q26.19 9.48 24.44 9.48L24.44 9.48L24.44 9.48Q22.69 9.48 22.69 8.46L22.69 8.46L22.69 4.96L22.69 4.96Q22.69 3.94 24.44 3.94L24.44 3.94L24.44 3.94Q26.19 3.94 26.19 4.96L26.19 4.96L26.19 5.83L27.65 5.83L27.65 4.67L27.65 4.67Q27.65 2.77 24.44 2.77L24.44 2.77L24.44 2.77Q21.23 2.77 21.23 4.67L21.23 4.67L21.23 8.75L21.23 8.75Q21.23 10.65 24.44 10.65L24.44 10.65L24.44 10.65Q27.65 10.65 27.65 8.75L27.65 8.75ZM29.63 0.58L31.09 0.58L31.09 2.92L32.55 2.92L32.55 4.08L31.09 4.08L31.09 8.17L31.09 8.17Q31.09 9.33 32.55 9.33L32.55 9.33L32.55 10.50L31.09 10.50L31.09 10.50Q29.63 10.50 29.63 8.75L29.63 8.75L29.63 4.08L28.82 4.08L28.82 2.92L29.63 2.92L29.63 0.58ZM33.72 5.83L39.55 5.83L39.55 4.67L33.72 4.67L33.72 5.83ZM40.72 2.92L40.72 10.50L42.18 10.50L42.18 4.96L42.18 4.96Q42.18 3.94 43.93 3.94L43.93 3.94L43.93 3.94Q45.68 3.94 45.68 4.96L45.68 4.96L45.68 10.50L47.13 10.50L47.13 4.67L47.13 4.67Q47.13 2.77 44.65 2.77L44.65 2.77L44.65 2.77Q42.18 2.77 42.18 3.94L42.18 3.94L42.18 2.92L40.72 2.92ZM48.30 4.67L48.30 4.67L48.30 8.75L48.30 8.75Q48.30 10.65 51.51 10.65L51.51 10.65L51.51 10.65Q54.72 10.65 54.72 8.75L54.72 8.75L54.72 7.88L53.26 7.88L53.26 8.46L53.26 8.46Q53.26 9.48 51.51 9.48L51.51 9.48L51.51 9.48Q49.76 9.48 49.76 8.46L49.76 8.46L49.76 7.29L54.72 7.29L54.72 4.67L54.72 4.67Q54.72 2.77 51.51 2.77L51.51 2.77L51.51 2.77Q48.30 2.77 48.30 4.67ZM53.26 6.13L49.76 6.13L49.76 4.96L49.76 4.96Q49.76 3.94 51.51 3.94L51.51 3.94L51.51 3.94Q53.26 3.94 53.26 4.96L53.26 4.96L53.26 6.13ZM56.70 0.58L58.16 0.58L58.16 2.92L59.62 2.92L59.62 4.08L58.16 4.08L58.16 8.17L58.16 8.17Q58.16 9.33 59.62 9.33L59.62 9.33L59.62 10.50L58.16 10.50L58.16 10.50Q56.70 10.50 56.70 8.75L56.70 8.75L56.70 4.08L55.88 4.08L55.88 2.92L56.70 2.92L56.70 0.58ZM60.78 10.50L62.24 10.50L62.24-0.29L60.78-0.29L60.78 10.50ZM64.87 2.92L63.41 2.92L63.41 10.50L64.87 10.50L64.87 2.92ZM64.98 0.66L64.98 0.66L64.98 0.66Q64.98-0.15 64.14-0.15L64.14-0.15L64.14-0.15Q63.29-0.15 63.29 0.66L63.29 0.66L63.29 0.66Q63.29 1.46 64.14 1.46L64.14 1.46L64.14 1.46Q64.98 1.46 64.98 0.66ZM66.85 10.50L68.31 10.50L68.31 4.08L69.77 4.08L69.77 2.92L68.31 2.92L68.31 1.75L68.31 1.75Q68.31 0.88 69.77 0.88L69.77 0.88L69.77-0.29L68.39-0.29L68.39-0.29Q66.85-0.29 66.85 1.46L66.85 1.46L66.85 2.92L66.03 2.92L66.03 4.08L66.85 4.08L66.85 10.50ZM78.40 2.92L74.96 11.76L74.96 11.76Q74.48 13.27 73.30 13.27L73.30 13.27L72.22 13.27L72.22 12.10L73.12 12.10L73.12 12.10Q73.62 12.10 73.82 11.38L73.82 11.38L74.09 10.50L70.93 2.92L72.68 2.92L74.73 8.80L76.65 2.92L78.40 2.92ZM79.10 5.83L84.93 5.83L84.93 4.67L79.10 4.67L79.10 5.83ZM86.92 10.50L88.38 10.50L88.38 4.08L89.83 4.08L89.83 2.92L88.38 2.92L88.38 1.75L88.38 1.75Q88.38 0.88 89.83 0.88L89.83 0.88L89.83-0.29L88.46-0.29L88.46-0.29Q86.92-0.29 86.92 1.46L86.92 1.46L86.92 2.92L86.10 2.92L86.10 4.08L86.92 4.08L86.92 10.50ZM95.96 4.96L95.96 8.46L95.96 8.46Q95.96 9.48 94.21 9.48L94.21 9.48L94.21 9.48Q92.46 9.48 92.46 8.46L92.46 8.46L92.46 4.96L92.46 4.96Q92.46 3.94 94.21 3.94L94.21 3.94L94.21 3.94Q95.96 3.94 95.96 4.96L95.96 4.96ZM97.42 8.75L97.42 4.67L97.42 4.67Q97.42 2.77 94.21 2.77L94.21 2.77L94.21 2.77Q91.00 2.77 91.00 4.67L91.00 4.67L91.00 8.75L91.00 8.75Q91.00 10.65 94.21 10.65L94.21 10.65L94.21 10.65Q97.42 10.65 97.42 8.75L97.42 8.75ZM98.58 2.92L98.58 10.50L100.04 10.50L100.04 4.96L100.04 4.96Q100.04 3.94 101.33 3.94L101.33 3.94L101.33 3.94Q102.61 3.94 102.61 4.96L102.61 4.96L102.61 5.54L104.07 5.54L104.07 4.67L104.07 4.67Q104.07 2.77 102.05 2.77L102.05 2.77L102.05 2.77Q100.04 2.77 100.04 3.94L100.04 3.94L100.04 2.92L98.58 2.92ZM105.23 2.92L105.23 10.50L106.69 10.50L106.69 4.96L106.69 4.96Q106.69 3.94 108.09 3.94L108.09 3.94L108.09 3.94Q109.49 3.94 109.49 4.96L109.49 4.96L109.49 10.50L110.95 10.50L110.95 4.96L110.95 4.96Q110.95 3.94 112.35 3.94L112.35 3.94L112.35 3.94Q113.75 3.94 113.75 4.96L113.75 4.96L113.75 10.50L115.21 10.50L115.21 4.67L115.21 4.67Q115.21 2.77 113.21 2.77L113.21 2.77L113.21 2.77Q111.22 2.77 110.80 3.70L110.80 3.70L110.80 3.70Q110.48 2.77 108.59 2.77L108.59 2.77L108.59 2.77Q106.69 2.77 106.69 3.94L106.69 3.94L106.69 2.92L105.23 2.92ZM117.98 5.30L117.98 5.30L117.98 4.96L117.98 4.96Q117.98 3.94 119.58 3.94L119.58 3.94L119.58 3.94Q121.19 3.94 121.19 4.96L121.19 4.96L121.19 5.54L122.65 5.54L122.65 4.67L122.65 4.67Q122.65 2.77 119.58 2.77L119.58 2.77L119.58 2.77Q116.52 2.77 116.52 4.67L116.52 4.67L116.52 5.40L116.52 5.40Q116.52 7.17 119.58 7.29L119.58 7.29L119.58 7.29Q121.33 7.40 121.33 8.02L121.33 8.02L121.33 8.46L121.33 8.46Q121.33 9.48 119.58 9.48L119.58 9.48L119.58 9.48Q117.83 9.48 117.83 8.46L117.83 8.46L117.83 7.88L116.38 7.88L116.38 8.75L116.38 8.75Q116.38 10.65 119.58 10.65L119.58 10.65L119.58 10.65Q122.79 10.65 122.79 8.75L122.79 8.75L122.79 7.73L122.79 7.73Q122.79 6.11 119.58 5.98L119.58 5.98L119.58 5.98Q117.98 5.91 117.98 5.30Z"></path></g><defs data-v-423bf9ae=""><linearGradient data-v-423bf9ae="" gradientTransform="rotate(25)" id="150496f5-d713-4c76-abac-b2f9d3ff3845" x1="0%" y1="0%" x2="100%" y2="0%"><stop data-v-423bf9ae="" offset="0%" style="stop-color: rgb(1, 100, 139); stop-opacity: 1;"></stop><stop data-v-423bf9ae="" offset="100%" style="stop-color: rgb(91, 208, 164); stop-opacity: 1;"></stop></linearGradient></defs><g data-v-423bf9ae="" id="27572dc7-bf15-4779-87ec-349384ecb9fc" transform="matrix(1.0888888888888888,0,0,1.0888888888888888,-1.7497328016493015,-0.44444444444444287)" stroke="none" fill="url(#150496f5-d713-4c76-abac-b2f9d3ff3845)"><path d="M72 92H9V8h63v38.458l7-12.543V8.158C79 4.195 76.23 1 72.267 1H8.708C4.746 1 2 4.195 2 8.158v84.121C2 96.241 4.746 99 8.708 99h63.559C76.23 99 79 96.241 79 92.279V69.233l-7 12.543V92z"></path><path d="M15 19h39v5H15zM15 42h39v5H15zM15 31h51v5H15zM15 54h51v5H15zM15 65h39v5H15zM89.696 26.201L87.8 29.502l-.818 1.425 7.028 4.036.818-1.424 1.896-3.302zM60 76.589V85l7.224-4.374 24.879-43.051-7.028-4.036z"></path><circle cx="19.604" cy="81.623" r="4.856"></circle><circle cx="35.01" cy="81.683" r="4.856"></circle></g><!----></svg>